# xmcd
#
# Track frame offsets:
#	150
#	14543
#	29468
#	46197
#	62084
#	77147
#	93197
#	107219
#	124924
#	140916
#	157685
#	173242
#	188691
#	206696
#	223995
#	238313
#	256114
#	269196
#	298509
#
# Disc length: 3986 seconds
#
# Revision: 1
# Processed by: cddbd v1.5.1PL0 Copyright (c) Steve Scherf et al.
# Submitted via: audiograbber 1.83.01
#
DISCID=200f9013
DTITLE=Various Artist - Top Tunes Country Volume 25 - TT-127
DYEAR=2001
DGENRE=Karaoke
TTITLE0=Phil Vassar - American Child
TTITLE1=Pinmonkey - Barbs And Roses
TTITLE2=Diamond Rio - Beautiful Mess
TTITLE3=Toby Keith - Courtesy Of The Red White and Blue (The Angry American)
TTITLE4=Steve Azar - I Don't Have To Be Me Till Monday
TTITLE5=Darryl Worley - I Miss My Friend
TTITLE6=Emerson Drive  - I Should Be Sleeping
TTITLE7=Anthony Smith - If That Ain't Country
TTITLE8=Trick Pony - Just What I Do
TTITLE9=Blake Shelton - Ol' Red
TTITLE10=Hank Williams Jr. and Kid Rock - The F Word
TTITLE11=Kenny Chesney - The Good Stuff
TTITLE12=Joe Nichols - The Impossible
TTITLE13=Gary Allan - The One
TTITLE14=Andy Griggs - Tonight I Want To Be Your Man
TTITLE15=Tim McGraw - Unbroken
TTITLE16=Tony Stampley - Waste Of Good Whiskey
TTITLE17=Alan Jackson - Work In Progress
TTITLE18=Top Tunes - Promo
EXTD=
EXTT0=
EXTT1=
EXTT2=
EXTT3=
EXTT4=
EXTT5=
EXTT6=
EXTT7=
EXTT8=
EXTT9=
EXTT10=
EXTT11=
EXTT12=
EXTT13=
EXTT14=
EXTT15=
EXTT16=
EXTT17=
EXTT18=
PLAYORDER=
